# xmcd CD database file
#
# Track frame offsets:
#	183
#	3540
#	19438
#	36338
#	49703
#	68940
#	98150
#	103173
#	109030
#	117280
#	123488
#	129093
#	137945
#	142630
#	151790
#	189783
#	215738
#	242198
#	260510
#
# Disc length: 3543 seconds
#
# Revision: 0
# Processed by: cddbd v1.5.2PL0 Copyright (c) Steve Scherf et al.
# Submitted via: CDex 1.70beta2
#
DISCID=0c0dd513
DTITLE=GODARD Michel - Aborigène
DYEAR=1992
DGENRE=Jazz
TTITLE0=Coeur rouge
TTITLE1=Le printemps Allegro (Vivaldi)
TTITLE2=Duo 1er mouvement (Drake Mabry)
TTITLE3=Duo 2e mouvement (Drake Mabry)
TTITLE4=Aborigène
TTITLE5=Le miroir et l'eau (Mico Nissim)
TTITLE6=Altri Ballin°1
TTITLE7=Recercarda primera (Diego Ortiz)
TTITLE8=Recercarda tercera (Diego Ortiz)
TTITLE9=Recercarda Quinta pars (Diego Ortiz)
TTITLE10=Altri Balli n°2
TTITLE11=Danza del Hacha (A. Y. Coll)
TTITLE12=Altri Balli n°3
TTITLE13=Une larme (G Rossini)
TTITLE14=Le carnaval de Venise (JB Arban)
TTITLE15=La Polonaise (J Offenbach)
TTITLE16=Comentario (G Beythelman)
TTITLE17=Le Tuba n'est pas (Linda Bsiri)
TTITLE18=La Monica
EXTD=YEAR: 1992
EXTT0=
EXTT1=
EXTT2=
EXTT3=
EXTT4=
EXTT5=
EXTT6=
EXTT7=
EXTT8=
EXTT9=
EXTT10=
EXTT11=
EXTT12=
EXTT13=
EXTT14=
EXTT15=
EXTT16=
EXTT17=
EXTT18=
PLAYORDER=
